<mxfile host="app.diagrams.net" modified="2022-12-07T15:51:51.234Z" agent="5.0 (Windows)" etag="NEpld8oNXMTn8Se5CBmQ" version="20.6.0" type="github">
  <diagram name="Page-1" id="e7e014a7-5840-1c2e-5031-d8a46d1fe8dd">
    <mxGraphModel dx="1038" dy="564" grid="1" gridSize="10" guides="1" tooltips="1" connect="1" arrows="1" fold="1" page="1" pageScale="1" pageWidth="1169" pageHeight="826" background="none" math="0" shadow="0">
      <root>
        <mxCell id="0" />
        <mxCell id="1" parent="0" />
        <mxCell id="2" value="Mitarbeiter" style="swimlane;whiteSpace=wrap" parent="1" vertex="1">
          <mxGeometry x="164.5" y="128" width="275.5" height="570" as="geometry" />
        </mxCell>
        <mxCell id="5" value="" style="ellipse;shape=startState;fillColor=#000000;strokeColor=#ff0000;" parent="2" vertex="1">
          <mxGeometry x="100" y="40" width="30" height="30" as="geometry" />
        </mxCell>
        <mxCell id="6" value="" style="edgeStyle=elbowEdgeStyle;elbow=horizontal;verticalAlign=bottom;endArrow=open;endSize=8;strokeColor=#FF0000;endFill=1;rounded=0" parent="2" source="5" target="7" edge="1">
          <mxGeometry x="100" y="40" as="geometry">
            <mxPoint x="115" y="110" as="targetPoint" />
          </mxGeometry>
        </mxCell>
        <mxCell id="7" value="Sucht nach PSP-&#xa;Element" style="" parent="2" vertex="1">
          <mxGeometry x="60" y="110" width="110" height="50" as="geometry" />
        </mxCell>
        <mxCell id="8" value="Wählt PSP-Element&#xa;aus" style="" parent="2" vertex="1">
          <mxGeometry x="60" y="172" width="110" height="50" as="geometry" />
        </mxCell>
        <mxCell id="9" value="" style="endArrow=open;strokeColor=#FF0000;endFill=1;rounded=0" parent="2" edge="1">
          <mxGeometry relative="1" as="geometry">
            <mxPoint x="115.5" y="162" as="sourcePoint" />
            <mxPoint x="115.5" y="172" as="targetPoint" />
          </mxGeometry>
        </mxCell>
        <mxCell id="10" value="Fragt Berechtigun an" style="" parent="2" vertex="1">
          <mxGeometry x="60" y="252" width="110" height="50" as="geometry" />
        </mxCell>
        <mxCell id="11" value="" style="endArrow=open;strokeColor=#FF0000;endFill=1;rounded=0;entryX=0.5;entryY=0;entryDx=0;entryDy=0;entryPerimeter=0;exitX=0.495;exitY=1.04;exitDx=0;exitDy=0;exitPerimeter=0;" parent="2" source="8" target="10" edge="1">
          <mxGeometry relative="1" as="geometry">
            <mxPoint x="175.5" y="244" as="sourcePoint" />
          </mxGeometry>
        </mxCell>
        <mxCell id="048lDmPZXvGte442reA_-51" value="Anfrage angenommen" style="ellipse;whiteSpace=wrap;html=1;aspect=fixed;" vertex="1" parent="2">
          <mxGeometry x="135.5" y="472" width="80" height="80" as="geometry" />
        </mxCell>
        <mxCell id="048lDmPZXvGte442reA_-54" value="Anfrage abgelehnt" style="ellipse;whiteSpace=wrap;html=1;aspect=fixed;" vertex="1" parent="2">
          <mxGeometry x="105.5" y="372" width="80" height="80" as="geometry" />
        </mxCell>
        <mxCell id="3" value="Chef" style="swimlane;whiteSpace=wrap" parent="1" vertex="1">
          <mxGeometry x="440" y="128" width="280" height="570" as="geometry" />
        </mxCell>
        <mxCell id="048lDmPZXvGte442reA_-41" value="Prüft Anfrage" style="rounded=0;whiteSpace=wrap;html=1;" vertex="1" parent="3">
          <mxGeometry x="75.5" y="62" width="120" height="60" as="geometry" />
        </mxCell>
        <mxCell id="048lDmPZXvGte442reA_-43" value="Anfrage" style="rhombus;whiteSpace=wrap;html=1;" vertex="1" parent="3">
          <mxGeometry x="125.5" y="172" width="54.5" height="48" as="geometry" />
        </mxCell>
        <mxCell id="048lDmPZXvGte442reA_-44" value="" style="endArrow=classic;html=1;rounded=0;entryX=0.5;entryY=0;entryDx=0;entryDy=0;exitX=0.467;exitY=0.983;exitDx=0;exitDy=0;exitPerimeter=0;" edge="1" parent="3" source="048lDmPZXvGte442reA_-41" target="048lDmPZXvGte442reA_-43">
          <mxGeometry width="50" height="50" relative="1" as="geometry">
            <mxPoint x="55.5" y="312" as="sourcePoint" />
            <mxPoint x="105.5" y="262" as="targetPoint" />
          </mxGeometry>
        </mxCell>
        <mxCell id="048lDmPZXvGte442reA_-45" value="PSP-Element freigegeben" style="rounded=0;whiteSpace=wrap;html=1;" vertex="1" parent="3">
          <mxGeometry x="85" y="452" width="120" height="60" as="geometry" />
        </mxCell>
        <mxCell id="048lDmPZXvGte442reA_-49" value="" style="endArrow=classic;html=1;rounded=0;entryX=0.542;entryY=-0.05;entryDx=0;entryDy=0;entryPerimeter=0;exitX=0.5;exitY=1;exitDx=0;exitDy=0;" edge="1" parent="3" source="048lDmPZXvGte442reA_-43" target="048lDmPZXvGte442reA_-45">
          <mxGeometry width="50" height="50" relative="1" as="geometry">
            <mxPoint x="55.5" y="312" as="sourcePoint" />
            <mxPoint x="105.5" y="262" as="targetPoint" />
          </mxGeometry>
        </mxCell>
        <mxCell id="048lDmPZXvGte442reA_-50" value="&lt;div&gt;annehmen&lt;/div&gt;" style="edgeLabel;html=1;align=center;verticalAlign=middle;resizable=0;points=[];" vertex="1" connectable="0" parent="048lDmPZXvGte442reA_-49">
          <mxGeometry x="-0.4604" y="-2" relative="1" as="geometry">
            <mxPoint as="offset" />
          </mxGeometry>
        </mxCell>
        <mxCell id="048lDmPZXvGte442reA_-42" value="" style="endArrow=classic;html=1;rounded=0;entryX=0;entryY=0.45;entryDx=0;entryDy=0;entryPerimeter=0;exitX=1.014;exitY=0.52;exitDx=0;exitDy=0;exitPerimeter=0;" edge="1" parent="1" source="10" target="048lDmPZXvGte442reA_-41">
          <mxGeometry width="50" height="50" relative="1" as="geometry">
            <mxPoint x="340" y="402" as="sourcePoint" />
            <mxPoint x="520" y="470" as="targetPoint" />
          </mxGeometry>
        </mxCell>
        <mxCell id="048lDmPZXvGte442reA_-47" value="" style="endArrow=classic;html=1;rounded=0;entryX=1.038;entryY=0.425;entryDx=0;entryDy=0;entryPerimeter=0;exitX=0;exitY=0.5;exitDx=0;exitDy=0;" edge="1" parent="1" source="048lDmPZXvGte442reA_-43" target="048lDmPZXvGte442reA_-54">
          <mxGeometry width="50" height="50" relative="1" as="geometry">
            <mxPoint x="500" y="440" as="sourcePoint" />
            <mxPoint x="362.25" y="560" as="targetPoint" />
          </mxGeometry>
        </mxCell>
        <mxCell id="048lDmPZXvGte442reA_-48" value="abgelehnt" style="edgeLabel;html=1;align=center;verticalAlign=middle;resizable=0;points=[];" vertex="1" connectable="0" parent="048lDmPZXvGte442reA_-47">
          <mxGeometry x="-0.5131" y="-1" relative="1" as="geometry">
            <mxPoint as="offset" />
          </mxGeometry>
        </mxCell>
        <mxCell id="048lDmPZXvGte442reA_-52" value="" style="endArrow=classic;html=1;rounded=0;exitX=-0.033;exitY=0.6;exitDx=0;exitDy=0;exitPerimeter=0;entryX=0.963;entryY=0.275;entryDx=0;entryDy=0;entryPerimeter=0;" edge="1" parent="1" source="048lDmPZXvGte442reA_-45" target="048lDmPZXvGte442reA_-51">
          <mxGeometry width="50" height="50" relative="1" as="geometry">
            <mxPoint x="500" y="440" as="sourcePoint" />
            <mxPoint x="550" y="390" as="targetPoint" />
          </mxGeometry>
        </mxCell>
      </root>
    </mxGraphModel>
  </diagram>
</mxfile>
